/* XPM */
static const char *FCIcon[]={
"16 16 4 1",
"# c #000000",
"a c #848284",
"b c #ff0000",
". c #ffffff",
"........#.......",
".......##aaaaaa.",
"........#.....a.",
".#######......a.",
".##...........a.",
".##...bbbb....a.",
".##..bb..bb...a.",
".###bb#...b..###",
".##.bb........#.",
".##.bb..........",
".##.bb..........",
".##.bb..........",
".##.bb....b.....",
".....bb..bb.....",
"......bbbb......",
"................"};
