/* XPM */
static const char *Open[]={
"24 24 18 1",
"l c None",
"j c None",
"p c None",
"i c None",
"k c None",
"h c None",
"o c None",
"n c None",
"m c None",
"a c None",
"# c None",
". c None",
"b c None",
"d c #000000",
"c c #636500",
"f c #cecfe7",
"g c #ffcb00",
"e c #ffff94",
"........................",
"########################",
"aaaaaaaaaaaaaaaaaaaaaaaa",
"aaaaaaaaaaaaaaaaaaaaaaaa",
"aabbbbbbbbbbbbbbbbbbbaaa",
"aaaaacccccaaaaadddaaaaaa",
"aaaaceeeeedaaadaaadfdaaa",
"aaaceeeeeeedaafaaafddaaa",
"aaccccccccccccccdfdddaaa",
"aaceeeeeeeeeeeeedaaaaaaa",
"aaceeeeeeeeeeeeedaaaaaaa",
"aaceeeccccccccccccccdaaa",
"aaceeecgggggggggggggdaaa",
"aaceecgggggggggggggdaaaa",
"aaceecgggggggggggggdaaaa",
"aacecgggggggggggggdahaai",
"aacecgggggggggggggdjaaja",
"aaccgggggggggggggdjajkal",
"aaccgggggggggggggdakaaja",
"aadddddddddddddddajajiaj",
"aaaaaahajaiaiaiaiaiaiala",
"mmmmmhmimimimimimimimmmm",
"nnnnjnininininininlnnnnn",
"ooolopopojojojojopoooooo"};
