/* XPM */
static const char *x[]={
"24 24 2 1",
"# c #000000",
". c #ffffff",
"........................",
"........................",
"...##..............##...",
"..####............####..",
"..#####..........#####..",
"..######........#####...",
"...######......######...",
"....######....######....",
".....######..######.....",
"......############......",
".......##########.......",
"........########........",
".........######.........",
"........########........",
".......##########.......",
"......############......",
".....######..######.....",
"....######....######....",
"..#######......######...",
".#######........######..",
".######..........#####..",
"..####.............##...",
"........................",
"........................"};
